<?xml version="1.0" standalone="no"?>
<!DOCTYPE svg PUBLIC "-//W3C//DTD SVG 20010904//EN"
 "http://www.w3.org/TR/2001/REC-SVG-20010904/DTD/svg10.dtd">
<svg version="1.0" xmlns="http://www.w3.org/2000/svg"
 width="165.000000pt" height="69.000000pt" viewBox="0 0 165.000000 69.000000"
 preserveAspectRatio="xMidYMid meet">

<g transform="translate(0.000000,69.000000) scale(0.100000,-0.100000)"
fill="#000000" stroke="none">
<path d="M0 345 l0 -345 825 0 825 0 0 345 0 345 -825 0 -825 0 0 -345z m218
129 c33 -23 29 -68 -8 -96 -26 -19 -28 -24 -16 -37 7 -9 22 -44 33 -78 l20
-63 -21 0 c-17 0 -21 7 -22 38 -2 50 -29 112 -49 112 -14 0 -16 -11 -13 -75 3
-72 -2 -85 -31 -85 -3 0 -5 34 -3 75 3 48 0 80 -7 89 -8 10 -9 16 -1 21 15 9
13 102 -2 108 -7 3 12 6 42 6 35 1 64 -5 78 -15z m105 8 c-14 -9 -17 -236 -2
-263 7 -15 6 -19 -5 -19 -8 0 -18 6 -23 13 -13 22 -32 161 -22 171 14 15 11
94 -3 99 -7 3 5 6 27 6 22 0 35 -3 28 -7z m111 -55 c-1 -34 -5 -70 -9 -80 -4
-9 -5 -49 -3 -87 3 -67 3 -70 -19 -70 -17 0 -21 4 -16 18 5 14 3 15 -8 5 -24
-23 -30 -14 -10 15 25 34 40 132 20 132 -10 0 -10 3 -1 12 16 16 16 105 0 111
-7 3 1 6 17 6 l30 1 -1 -63z m62 47 c-9 -8 -16 -23 -16 -32 0 -27 29 -62 51
-62 10 0 19 -5 19 -11 0 -6 9 -22 20 -36 29 -37 26 -79 -9 -114 -54 -53 -121
-25 -121 51 0 38 12 52 25 30 3 -5 1 -10 -4 -10 -19 0 -12 -56 9 -75 54 -49
119 49 74 113 -8 12 -23 22 -32 22 -10 0 -22 8 -27 18 -39 73 -39 70 -21 97 9
14 23 25 32 25 14 0 14 -2 0 -16z m329 -129 l0 -145 -25 0 -25 0 2 140 c1 85
-1 140 -7 140 -6 0 -11 -8 -11 -17 -1 -17 -2 -17 -6 0 -3 11 -14 17 -33 17
l-28 0 -1 -135 c0 -99 3 -135 12 -135 9 0 8 -3 -1 -9 -7 -4 -25 -6 -40 -3 -15
3 -21 7 -14 9 15 6 17 139 1 149 -8 4 -8 9 0 17 6 6 11 33 11 59 0 45 -2 48
-25 48 -17 0 -29 -7 -35 -22 -8 -22 -9 -22 -9 5 l-1 27 118 0 117 0 0 -145z
m155 130 c7 -8 20 -15 28 -15 13 0 12 -3 -4 -15 -24 -18 -35 -19 -28 -2 7 20
-21 40 -45 32 -27 -8 -49 -78 -32 -99 8 -10 9 -16 1 -21 -14 -9 -12 -85 3
-115 8 -15 23 -26 38 -28 22 -3 30 4 48 40 16 34 21 38 21 20 0 -26 -50 -82
-74 -82 -33 0 -65 44 -79 108 -14 58 -13 68 4 115 10 29 27 58 36 65 23 17 68
15 83 -3z m135 6 c-8 -14 12 -95 24 -99 6 -2 8 -16 5 -32 -7 -35 12 -132 29
-142 7 -4 -4 -8 -25 -8 -29 0 -35 3 -32 18 3 9 1 44 -3 77 -7 51 -11 60 -30
63 -16 2 -23 -4 -32 -30 -21 -67 -24 -110 -10 -119 10 -6 7 -9 -12 -9 l-27 0
15 42 c8 23 15 62 16 87 1 25 6 49 10 52 12 8 29 88 22 100 -4 5 8 9 25 9 17
0 29 -4 25 -9z m135 -10 c5 -11 21 -61 35 -112 13 -51 29 -97 34 -102 7 -7 10
30 9 104 0 74 -4 117 -12 121 -7 5 -3 8 9 8 18 0 20 -5 17 -55 -3 -44 -1 -55
11 -55 9 0 21 16 27 38 17 51 38 72 72 72 21 0 33 -8 48 -32 11 -18 20 -43 20
-55 0 -12 5 -25 11 -29 8 -4 8 -9 0 -17 -6 -6 -11 -18 -11 -27 0 -38 -32 -120
-50 -130 -42 -22 -82 26 -95 113 -5 31 -12 47 -22 47 -12 0 -14 -15 -11 -80
l3 -80 -33 0 c-18 0 -31 4 -27 9 5 9 -52 219 -62 231 -3 3 -4 -13 -3 -35 1
-22 2 -77 1 -122 -1 -68 -4 -83 -16 -83 -12 0 -13 4 -5 19 14 27 13 124 -2
139 -8 8 -8 15 2 27 15 18 7 84 -12 97 -8 5 -1 8 19 8 22 0 36 -6 43 -19z
m-670 -5 c0 -8 -4 -18 -10 -21 -5 -3 -10 3 -10 14 0 12 5 21 10 21 6 0 10 -6
10 -14z m-73 -328 c-3 -8 -6 -5 -6 6 -1 11 2 17 5 13 3 -3 4 -12 1 -19z m450
-10 c-3 -7 -5 -2 -5 12 0 14 2 19 5 13 2 -7 2 -19 0 -25z m100 -5 c-3 -10 -5
-4 -5 12 0 17 2 24 5 18 2 -7 2 -21 0 -30z m-770 -5 c-3 -7 -5 -2 -5 12 0 14
2 19 5 13 2 -7 2 -19 0 -25z"/>
<path d="M142 428 c2 -39 7 -54 19 -56 28 -5 50 27 47 67 -3 33 -6 36 -36 39
l-33 3 3 -53z"/>
<path d="M1073 420 c-11 -36 -1 -62 16 -44 6 5 6 24 2 44 l-8 35 -10 -35z"/>
<path d="M1422 448 c-23 -76 -9 -230 22 -241 53 -21 89 200 41 253 -27 30 -52
25 -63 -12z"/>
</g>
</svg>
